<svg xmlns="http://www.w3.org/2000/svg" viewBox="0 0 100 100" width="100" height="100">
  <defs>
    <linearGradient id="bg" x1="0" y1="0" x2="1" y2="1">
      <stop offset="0%" stop-color="#1a1108"/>
      <stop offset="100%" stop-color="#0d0d1a"/>
    </linearGradient>
    <linearGradient id="gold" x1="0" y1="0" x2="1" y2="1">
      <stop offset="0%" stop-color="#c8860a"/>
      <stop offset="100%" stop-color="#f0a500"/>
    </linearGradient>
  </defs>
  <rect width="100" height="100" rx="18" fill="url(#bg)"/>
  <rect x="1" y="1" width="98" height="98" rx="17" fill="none" stroke="#c8860a" stroke-width="1.5" opacity="0.6"/>
  <!-- Folder shape -->
  <path d="M20 38 Q20 32 26 32 L42 32 L46 28 L74 28 Q80 28 80 34 L80 66 Q80 72 74 72 L26 72 Q20 72 20 66 Z" fill="none" stroke="url(#gold)" stroke-width="2.5"/>
  <!-- Lock -->
  <rect x="40" y="50" width="20" height="14" rx="3" fill="url(#gold)" opacity="0.9"/>
  <path d="M44 50 L44 46 Q44 42 50 42 Q56 42 56 46 L56 50" fill="none" stroke="url(#gold)" stroke-width="2.5" stroke-linecap="round"/>
  <circle cx="50" cy="57" r="2.5" fill="#1a1108"/>
</svg>
